# xmcd
#
# Track frame offsets: 
#        150
#        15951
#        33926
#        51186
#        70259
#        89303
#        107358
#        126492
#        143623
#        158635
#        169135
#
# Disc length: 2499 seconds
#
# Revision: 1
# Processed by: cddbd v1.5.2PL0 Copyright (c) Steve Scherf et al.
# Submitted via: ExactAudioCopyFreeDBPlugin 1.0
#
DISCID=8309c10b
DTITLE=Amy Speace - How To Sleep In A Stormy Boat
DYEAR=2013
DGENRE=Americana
TTITLE0=The Fortunate Ones
TTITLE1=Lullabye Under The Willow
TTITLE2=How To Sleep In A Stormy Boat
TTITLE3=The Sea and The Shore
TTITLE4=In Salida
TTITLE5=Bring Me Back My Heart
TTITLE6=Hunter Moon
TTITLE7=Left Me Hanging
TTITLE8=Perfume
TTITLE9=Feathers and Wishbones
TTITLE10=Hesitate
EXTD=
EXTT0=
EXTT1=
EXTT2=
EXTT3=
EXTT4=
EXTT5=
EXTT6=
EXTT7=
EXTT8=
EXTT9=
EXTT10=
PLAYORDER=
